<svg xmlns="http://www.w3.org/2000/svg" fill="none" viewBox="0 0 103 37" height="58">
<path fill="#850122" d="m2.91859.36894 6.31754 6.38259c.14778.14758.29556.18447.51723.18447H36.3905c.1847 0 .2956-.22136.1108-.40583L30.2577.22137C30.1099.07378 29.9621 0 29.6666 0H3.06637c-.25862 0-.29556.22136-.14778.36894ZM1.99501 36.5986c-.03694.1476.03695.2951.22167.2951H28.4844c.2586 0 .3694-.1106.4433-.332l7.9431-25.6042c.0739-.2582-.0369-.332-.2586-.332H10.2706c-.2216 0-.29553.0738-.36942.2582L1.99501 36.5986ZM0 29.2197c0 .2951.36945.2951.44334 0L6.46532 9.62916c.07389-.22137.07389-.36894-.11083-.55341L.36945 3.13588C.22167 2.9883 0 3.06209 0 3.24656V29.2197Z"/>
<path fill="#410002" d="M88.0974 22.4351c0-3.2466 2.4458-7.1205 6.6072-7.1205h3.0663l-1.0951 3.5418c-1.2777 4.2428-3.3219 6.8623-5.8041 6.8623-1.7887 0-2.7743-1.2544-2.7743-3.2836Zm-15.587-1.7709c-1.5331 4.9807.8031 8.4118 6.0961 8.4118.7666 0 1.7887-.0738 2.0807-.1476.146-.0369.219-.1107.292-.2952l.9126-3.099c.0365-.1845 0-.3321-.2555-.2952-.8031.0738-1.5332.1476-2.1902.1476-2.6648 0-3.7599-1.4388-2.9568-4.0214l1.8617-6.0506h5.4025c.146 0 .2555-.0737.3285-.2582l.9491-3.136c.0365-.1844-.0365-.2951-.2555-.2951h-5.293l.6935-2.28741c.0366-.14758.0001-.25826-.1095-.36894L77.2559 6.3864c-.1461-.14758-.3286-.11068-.4016.11068L72.5104 20.6642Zm-18.6168.1107c-1.5697 5.0544.9491 8.3749 4.8915 8.3749 2.2632 0 4.0519-1.1069 5.3295-2.9146l-.0365 2.3243c0 .2213.1095.2951.292.2951h2.5188c.1825 0 .2555-.0738.3285-.2582l5.074-16.6391c.073-.2213-.0365-.332-.219-.332h-3.6139c-.1825 0-.292.0738-.3285.2582l-2.1537 7.0098c-1.3507 4.3535-3.4679 6.8254-5.6946 6.8254s-3.1758-1.7709-2.3362-4.5011l2.8473-9.2603c.073-.2213-.0365-.332-.2191-.332h-3.6138c-.1825 0-.2555.0738-.3285.2582l-2.7378 8.8914Zm-12.3017-.1107c-1.5331 4.9807.8031 8.4118 6.0961 8.4118.7666 0 1.7887-.0738 2.0807-.1476.146-.0369.219-.1107.292-.2952l.9126-3.099c.0365-.1845 0-.3321-.2555-.2952-.8031.0738-1.5332.1476-2.1902.1476-2.6648 0-3.7599-1.4388-2.9568-4.0214l1.8617-6.0506h5.4025c.146 0 .292-.0737.3285-.2582l.9491-3.136c.0365-.1844-.0365-.2951-.2555-.2951h-5.3295l.6935-2.28741c.0365-.14758 0-.25826-.1095-.36894L46.3009 6.3864c-.1461-.14758-.3286-.11068-.4016.11068L41.5919 20.6642Zm47.9657 8.4856c2.1172 0 3.8693-.9593 5.1835-2.9146v2.3243c0 .1844.1095.2951.292.2951h2.5187c.1826 0 .2556-.0738.3286-.2582l5.1106-16.676c.036-.1844-.037-.332-.219-.332h-7.9579c-7.7753 0-10.8051 6.8253-10.8051 11.2525 0 3.8739 2.3728 6.3089 5.5486 6.3089Z"/>
</svg>
